<svg width="34" height="25" viewBox="0 0 34 25" fill="none" xmlns="http://www.w3.org/2000/svg">
<path d="M14 6C13.7148 6 13.3516 6.01412 12.9266 6.039C5.7796 6.45744 0 12.8037 0 19.963C0 22.4687 2.0313 24.5 4.53704 24.5H24.5C28.366 24.5 31.5 21.366 31.5 17.5V16.5H27C24.5 10 19.5 6 14 6Z" fill="#E7A659"/>
<path fill-rule="evenodd" clip-rule="evenodd" d="M23.1251 12.6072L20.3751 9.70252L25.4946 4.85557C24.8783 3.86767 25.0204 2.55036 25.8987 1.71883C26.9013 0.769575 28.4837 0.812852 29.4329 1.81549C29.8199 2.22419 30.0419 2.72919 30.1012 3.24838C30.6164 3.33603 31.1085 3.58532 31.4955 3.99402C32.4447 4.99666 32.4014 6.57898 31.3988 7.52823C30.5205 8.35976 29.1974 8.42967 28.2446 7.76027L23.1251 12.6072Z" fill="#BFBDB4"/>
<path d="M15.9999 9.49995C12.2076 11.8702 12.4999 17 13.9999 18.5C14.9999 19.5 18 22.5 22 18.5C25.5 15 25 9.99995 24 8.99995C23 7.99995 20 6.99994 15.9999 9.49995Z" fill="#BE571D"/>
</svg>
