<svg width="24" height="24" viewBox="0 0 24 24" fill="none" xmlns="http://www.w3.org/2000/svg">
<path d="M7.65217 14.7315C11.8022 14.7315 15.3043 15.4059 15.3043 18.0076C15.3043 20.6104 11.7792 21.2608 7.65217 21.2608C3.50314 21.2608 0 20.5865 0 17.9847C0 15.382 3.52515 14.7315 7.65217 14.7315ZM7.65217 2.13037C10.4635 2.13037 12.716 4.38205 12.716 7.19138C12.716 10.0007 10.4635 12.2533 7.65217 12.2533C4.84182 12.2533 2.58836 10.0007 2.58836 7.19138C2.58836 4.38205 4.84182 2.13037 7.65217 2.13037Z" fill="black"/>
<path d="M23.0001 18.0076C23.0001 17.1077 22.6879 16.3365 22.1254 15.7226C21.5835 15.1311 20.8518 14.7302 20.0642 14.4513C18.5022 13.8981 16.4473 13.7315 14.348 13.7315C12.2619 13.7315 10.2081 13.8919 8.64454 14.438C7.85625 14.7133 7.12178 15.1104 6.57699 15.6993C6.01091 16.3113 5.6958 17.0825 5.6958 17.9847C5.6958 18.8847 6.00813 19.6559 6.57077 20.2698C7.11275 20.8612 7.84451 21.2621 8.63218 21.541C10.1942 22.0942 12.2491 22.2608 14.348 22.2608C16.434 22.2608 18.4879 22.1004 20.0514 21.5543C20.8397 21.279 21.5742 20.882 22.119 20.293C22.685 19.681 23.0001 18.9098 23.0001 18.0076ZM20.4118 7.19138C20.4118 3.82929 17.7111 1.13037 14.348 1.13037C10.9859 1.13037 8.28416 3.82917 8.28416 7.19138C8.28416 10.5533 10.9857 13.2533 14.348 13.2533C17.7114 13.2533 20.4118 10.5532 20.4118 7.19138Z" fill="black" stroke="white" stroke-width="2"/>
</svg>
