<svg width="50" height="50" viewBox="0 0 50 50" fill="none" xmlns="http://www.w3.org/2000/svg">
<circle cx="25" cy="25" r="25" fill="#18191B"/>
<g clip-path="url(#clip0_1_26)">
<path d="M31.6326 21.0983C31.5317 21.1733 29.7495 22.135 29.7495 24.2733C29.7495 26.7467 32.0172 27.6217 32.0851 27.6433C32.0747 27.6967 31.7248 28.8417 30.8895 30.0083C30.1446 31.035 29.3666 32.06 28.1832 32.06C26.9997 32.06 26.6951 31.4017 25.329 31.4017C23.9976 31.4017 23.5242 32.0817 22.4417 32.0817C21.3592 32.0817 20.6038 31.1317 19.7354 29.965C18.7294 28.595 17.9167 26.4667 17.9167 24.4467C17.9167 21.2067 20.1165 19.4883 22.2816 19.4883C23.4319 19.4883 24.3909 20.2117 25.1131 20.2117C25.8006 20.2117 26.8727 19.445 28.1814 19.445C28.6774 19.445 30.4596 19.4883 31.6326 21.0983ZM27.5601 18.0733C28.1014 17.4583 28.4843 16.605 28.4843 15.7517C28.4843 15.6333 28.4738 15.5133 28.4512 15.4167C27.5706 15.4483 26.5229 15.9783 25.8911 16.68C25.3951 17.22 24.9321 18.0733 24.9321 18.9383C24.9321 19.0683 24.9548 19.1983 24.9652 19.24C25.0209 19.25 25.1114 19.2617 25.2019 19.2617C25.992 19.2617 26.9858 18.755 27.5601 18.0733Z" fill="white"/>
</g>
<defs>
<clipPath id="clip0_1_26">
<rect width="14.1667" height="16.6667" fill="white" transform="translate(17.9167 15.4167)"/>
</clipPath>
</defs>
</svg>
