<svg width="50" height="50" viewBox="0 0 50 50" fill="none" xmlns="http://www.w3.org/2000/svg">
<circle cx="25" cy="25" r="25" fill="white"/>
<path fill-rule="evenodd" clip-rule="evenodd" d="M37.7059 25.3008C37.7059 24.3623 37.6217 23.4599 37.4652 22.5936H25V27.7133H32.123C31.8162 29.3677 30.8837 30.7694 29.482 31.7079V35.0288H33.7594C36.262 32.7246 37.7059 29.3316 37.7059 25.3008Z" fill="#4285F4"/>
<path fill-rule="evenodd" clip-rule="evenodd" d="M25 38.2353C28.5736 38.2353 31.5695 37.0501 33.7594 35.0287L29.482 31.7079C28.2968 32.502 26.7808 32.9713 25 32.9713C21.5528 32.9713 18.6351 30.6431 17.5943 27.5147H13.1725V30.9439C15.3503 35.2694 19.8262 38.2353 25 38.2353Z" fill="#34A853"/>
<path fill-rule="evenodd" clip-rule="evenodd" d="M17.5943 27.5147C17.3295 26.7206 17.1791 25.8723 17.1791 25C17.1791 24.1277 17.3295 23.2794 17.5943 22.4853V19.0562H13.1725C12.2761 20.8429 11.7647 22.8643 11.7647 25C11.7647 27.1357 12.2761 29.1571 13.1725 30.9439L17.5943 27.5147Z" fill="#FBBC05"/>
<path fill-rule="evenodd" clip-rule="evenodd" d="M25 17.0287C26.9432 17.0287 28.6879 17.6965 30.0595 19.008L33.8556 15.2119C31.5635 13.0762 28.5675 11.7647 25 11.7647C19.8262 11.7647 15.3503 14.7306 13.1725 19.0562L17.5943 22.4853C18.6351 19.357 21.5528 17.0287 25 17.0287Z" fill="#EA4335"/>
</svg>
